<svg xmlns="http://www.w3.org/2000/svg" width="500" height="500" style="">
      <g style="fill:none;stroke:#000000;stroke-width:10;stroke-linecap:round;stroke-linejoin:round;">
      <path d="M163,124 Q163,127, 163,128.5 Q163,130, 162.5,136.5 Q162,143, 161,148.5 Q160,154, 159.5,162 Q159,170, 158,176 Q157,182, 157,187 Q157,192, 157,195.5 Q157,199, 157,202 Q157,205, 157.5,207 Q158,209, 159.5,211.5 Q161,214, 162.5,216 Q164,218, 165.5,221 Q167,224, 168,226 Q169,228, 170.5,229.5 Q172,231, 173,232.5 Q174,234, 174.5,235 Q175,236, 175.5,236.5 Q176,237, 176.5,237 Q177,237, 177,237 Q177,237, 177.5,237 Q178,237, 178,237 Q178,237, 178,237 Q178,237, 178,237 Q178,237, 178.5,237 Q179,237, 179,237 Q179,237, 179,237 Q179,237, 179.5,237 Q180,237, 180.5,237 Q181,237, 182,237 Q183,237, 184,236.5 Q185,236, 187.5,235 Q190,234, 192,232 Q194,230, 197.5,227 Q201,224, 205,220 Q209,216, 213.5,212 Q218,208, 222,204.5 Q226,201, 229.5,197.5 Q233,194, 235.5,191.5 Q238,189, 240,187 Q242,185, 244,182.5 Q246,180, 247,178.5 Q248,177, 248.5,176 Q249,175, 249.5,174 Q250,173, 250.5,172 Q251,171, 251,169 Q251,167, 251,165.5 Q251,164, 251,161.5 Q251,159, 251,156.5 Q251,154, 251,151.5 Q251,149, 251,146.5 Q251,144, 251,142.5 Q251,141, 251,139.5 Q251,138, 251,137 Q251,136, 251,135 Q251,134, 251,134 Q251,134, 251,133.5 Q251,133, 251,133 Q251,133, 250.5,133 Q250,133, 250,132.5 Q250,132, 250,132 Q250,132, 250,131.5 Q250,131, 249.5,131 Q249,131, 249,130.5 Q249,130, 249,129.5 Q249,129, 248.5,128 Q248,127, 248,126 Q248,125, 247.5,124 Q247,123, 247,122.5 Q247,122, 246.5,121.5 Q246,121, 246,121 Q246,121, 246,121.5 Q246,122, 246,122 Q246,122, 246,122 Q246,122, 246,122 Q246,122, 246.5,122.5 Q247,123, 247,123 Q247,123, 247,123 Q247,123, 247,122.5 Q247,122, 247,121 Q247,120, 247,118 Q247,116, 247,114 Q247,112, 247,110 Q247,108, 247,106 Q247,104, 247,102 Q247,100, 246.5,98.5 Q246,97, 245.5,95.5 Q245,94, 244.5,92.5 Q244,91, 243.5,90 Q243,89, 243,88 Q243,87, 242.5,86 Q242,85, 241.5,84 Q241,83, 240.5,82.5 Q240,82, 238.5,80.5 Q237,79, 235.5,78 Q234,77, 233,76.5 Q232,76, 230.5,75.5 Q229,75, 227,74.5 Q225,74, 223,72.5 Q221,71, 219.5,70 Q218,69, 215.5,67.5 Q213,66, 210,64.5 Q207,63, 204.5,62 Q202,61, 200,60 Q198,59, 196,58 Q194,57, 191.5,56.5 Q189,56, 187,55.5 Q185,55, 183,54.5 Q181,54, 179,53.5 Q177,53, 175.5,53 Q174,53, 173,52.5 Q172,52, 171,52 Q170,52, 169.5,52 Q169,52, 168,52 Q167,52, 166.5,52 Q166,52, 165,52 Q164,52, 163.5,52 Q163,52, 162,52.5 Q161,53, 161,53.5 Q161,54, 160.5,54 Q160,54, 159.5,55 Q159,56, 159,56 Q159,56, 158.5,56 Q158,56, 158,56.5 Q158,57, 158,57 Q158,57, 158,57 Q158,57, 157.5,57.5 Q157,58, 157,58.5 Q157,59, 156.5,59.5 Q156,60, 155.5,60.5 Q155,61, 154.5,62 Q154,63, 153,63.5 Q152,64, 151.5,64.5 Q151,65, 150.5,65.5 Q150,66, 150,66 Q150,66, 149.5,66.5 Q149,67, 149,67 Q149,67, 149,67.5 Q149,68, 149,68 Q149,68, 149,68 Q149,68, 149,68.5 Q149,69, 148.5,69 Q148,69, 148,69.5 Q148,70, 148,70.5 Q148,71, 148,71.5 Q148,72, 148,72.5 Q148,73, 148,73.5 Q148,74, 148.5,74.5 Q149,75, 149.5,76 Q150,77, 150,77.5 Q150,78, 150.5,78.5 Q151,79, 151.5,79.5 Q152,80, 152,80.5 Q152,81, 152.5,81.5 Q153,82, 153,83 Q153,84, 153.5,84.5 Q154,85, 154.5,85.5 Q155,86, 155.5,86 Q156,86, 156,86.5 Q156,87, 156.5,87.5 Q157,88, 157,88 Q157,88, 157.5,88.5 Q158,89, 158,89.5 Q158,90, 158.5,90.5 Q159,91, 159,92 Q159,93, 159.5,93.5 Q160,94, 160,94.5 Q160,95, 160.5,96 Q161,97, 161.5,98 Q162,99, 162,99.5 Q162,100, 162,101 Q162,102, 162.5,102.5 Q163,103, 163,104 Q163,105, 163.5,105.5 Q164,106, 164,106.5 Q164,107, 164,107.5 Q164,108, 164,108.5 Q164,109, 164.5,109.5 Q165,110, 165,110 Q165,110, 165,110.5 Q165,111, 165,111.5 Q165,112, 165,112 Q165,112, 165,112 Q165,112, 165,112.5 Q165,113, 165,113.5 Q165,114, 165.5,114.5 Q166,115, 166,115.5 Q166,116, 166,116.5 Q166,117, 166,117 Q166,117, 166.5,117.5 Q167,118, 167,118" class="kQMqdkSI_0"></path>
<path d="M99,253 Q103,254, 105.5,254.5 Q108,255, 112,255.5 Q116,256, 121.5,256.5 Q127,257, 132.5,257.5 Q138,258, 143.5,258 Q149,258, 154.5,258.5 Q160,259, 162.5,259 Q165,259, 168,259 Q171,259, 173,259 Q175,259, 176,258.5 Q177,258, 178,258 Q179,258, 179.5,258 Q180,258, 180.5,258 Q181,258, 181.5,258 Q182,258, 182,258 Q182,258, 182.5,258 Q183,258, 184,258 Q185,258, 187.5,258 Q190,258, 193,259 Q196,260, 201,260.5 Q206,261, 211,262 Q216,263, 221.5,263.5 Q227,264, 232.5,264.5 Q238,265, 243,265 Q248,265, 252,265 Q256,265, 258.5,265 Q261,265, 264.5,265.5 Q268,266, 269.5,267 Q271,268, 272,268.5 Q273,269, 274,270 Q275,271, 276.5,272 Q278,273, 279,273.5 Q280,274, 281.5,275 Q283,276, 284,276.5 Q285,277, 286.5,277 Q288,277, 289.5,277.5 Q291,278, 292.5,278 Q294,278, 295,278.5 Q296,279, 297,279 Q298,279, 298.5,279 Q299,279, 299.5,279 Q300,279, 300,279.5 Q300,280, 300,280" class="kQMqdkSI_1"></path>
      </g><style data-made-with="vivus-instant">.kQMqdkSI_0{stroke-dasharray:483 485;stroke-dashoffset:484;animation:kQMqdkSI_draw 2000ms linear 0ms forwards;}.kQMqdkSI_1{stroke-dasharray:207 209;stroke-dashoffset:208;animation:kQMqdkSI_draw 2000ms linear 1000ms forwards;}@keyframes kQMqdkSI_draw{100%{stroke-dashoffset:0;}}@keyframes kQMqdkSI_fade{0%{stroke-opacity:1;}94.44444444444444%{stroke-opacity:1;}100%{stroke-opacity:0;}}</style></svg>